HIERARCHY
ROOT root     
{
	OFFSET 0.0000 0.0000 0.0000
	CHANNELS 6 Xposition Yposition Zposition Zrotation Yrotation Xrotation
	JOINT pelvis   
	{
		OFFSET 0.0000 0.0000 0.0000
		CHANNELS 3 Zrotation Yrotation Xrotation
		JOINT thorax   
		{
			OFFSET 0.0000 23.0750 -5.0000
			CHANNELS 3 Zrotation Yrotation Xrotation
			JOINT rclavicle
			{
				OFFSET 0.0000 28.0009 0.0000
				CHANNELS 3 Zrotation Yrotation Xrotation
				JOINT rhumerus 
				{
					OFFSET -18.5725 5.5939 0.0000
					CHANNELS 3 Zrotation Yrotation Xrotation
					JOINT rradius  
					{
						OFFSET -24.8459 0.0000 0.0000
						CHANNELS 3 Zrotation Yrotation Xrotation
						JOINT rhand    
						{
							OFFSET -24.5477 0.0000 0.0000
							CHANNELS 3 Zrotation Yrotation Xrotation
							End Site
							{
								OFFSET -8.1826 0.0000 0.0000
							}
						}
					}
				}
			}
			JOINT lclavicle
			{
				OFFSET 0.0000 28.0009 0.0000
				CHANNELS 3 Zrotation Yrotation Xrotation
				JOINT lhumerus 
				{
					OFFSET 18.5725 5.5939 0.0000
					CHANNELS 3 Zrotation Yrotation Xrotation
					JOINT lradius  
					{
						OFFSET 24.8459 0.0000 0.0000
						CHANNELS 3 Zrotation Yrotation Xrotation
						JOINT lhand    
						{
							OFFSET 24.5477 0.0000 0.0000
							CHANNELS 3 Zrotation Yrotation Xrotation
							End Site
							{
								OFFSET 8.1826 0.0000 0.0000
							}
						}
					}
				}
			}
			JOINT head     
			{
				OFFSET 0.0000 35.2030 0.0000
				CHANNELS 3 Zrotation Yrotation Xrotation
				End Site
				{
					OFFSET 0.0000 11.7343 0.0000
				}
			}
		}
		JOINT rfemur   
		{
			OFFSET -8.2817 0.0000 0.0000
			CHANNELS 3 Zrotation Yrotation Xrotation
			JOINT rtibia   
			{
				OFFSET 0.0000 -43.3627 0.0000
				CHANNELS 3 Zrotation Yrotation Xrotation
				JOINT rfoot    
				{
					OFFSET 0.0000 -38.2947 0.0000
					CHANNELS 3 Zrotation Yrotation Xrotation
					JOINT rtoes    
					{
						OFFSET 0.0000 0.0000 16.6054
						CHANNELS 3 Zrotation Yrotation Xrotation
						End Site
						{
							OFFSET 0.0000 0.0000 5.5351
						}
					}
				}
			}
		}
		JOINT lfemur   
		{
			OFFSET 8.2817 0.0000 0.0000
			CHANNELS 3 Zrotation Yrotation Xrotation
			JOINT ltibia   
			{
				OFFSET 0.0000 -43.3627 0.0000
				CHANNELS 3 Zrotation Yrotation Xrotation
				JOINT lfoot    
				{
					OFFSET 0.0000 -38.2947 0.0000
					CHANNELS 3 Zrotation Yrotation Xrotation
					JOINT ltoes    
					{
						OFFSET 0.0000 0.0000 16.6054
						CHANNELS 3 Zrotation Yrotation Xrotation
						End Site
						{
							OFFSET 0.0000 0.0000 5.5351
						}
					}
				}
			}
		}
	}
}
MOTION
Frames: 15
Frame Time: .0333333
80.932 78.42 8.6204 111.068 -87.9076 -88.833 0 -0 0 9.97456 -8.92699 13.0993 25.9377 -12.6858 1.99466e-05 50.6307 -2.22849 -2.09277 -6.25846e-07 67.6759 -9.33526e-07 -3.16418 5.37496 -0.148601 -19.1905 15.3752 0.000107774 -54.6717 11.597 6.78681 5.79698e-07 -59.0971 -1.02259e-06 -3.38609 3.89105 -0.115101 0.0313002 2.45616 -25.4927 8.19717 -12.7355 -50.3233 -0 -0 57.666 1.81653e-06 -0.640502 -15.7903 0.174298 -8.88314e-08 -15.5321 0.0502655 13.3916 -28.3151 -0 -0 71.9116 4.12702e-06 16.3574 -2.3995 -0.704004 -4.19142e-06 -26.2134 
80.506 78.569 8.5194 106.627 -87.8103 -84.1866 0 -0 0 9.86493 -8.60368 13.169 25.7688 -12.4827 -6.9388e-06 50.6708 -1.76775 -1.9972 -6.46995e-07 68.2692 -9.54362e-07 -3.27063 5.36485 -0.153302 -19.1853 15.4091 -2.22035e-06 -54.6338 11.7776 7.12387 0 -59.3512 0 -3.44105 3.89934 -0.1172 0.0589077 2.17569 -25.3722 8.10401 -12.8387 -50.0589 -0 -0 57.375 4.03164e-08 -0.703198 -15.8253 0.191797 -5.39211e-07 -15.9325 -0.351835 13.0989 -29.667 -0 -0 72.3572 -8.02096e-06 16.3984 -2.89274 -0.85089 -2.94867e-06 -26.0534 
80.078 78.715 8.4226 102.737 -87.6897 -80.1094 0 -0 0 9.74324 -8.26151 13.2519 25.5829 -12.2866 -0.000173273 50.7077 -1.33005 -1.90308 -9.48542e-07 68.8974 -1.38278e-06 -3.35882 5.34704 -0.156901 -19.1819 15.4406 9.9345e-05 -54.598 11.9634 7.44213 0 -59.6441 0 -3.4968 3.90672 -0.119302 0.0775868 1.88952 -25.2467 8.01096 -12.9618 -49.7827 -0 -0 57.0973 -3.544e-06 -0.747001 -15.8495 0.204001 3.24581e-07 -16.3701 -0.75369 12.7815 -31.0244 -0 -0 72.7213 8.38117e-06 16.2959 -3.34367 -0.976895 -5.55815e-06 -25.9219 
79.648 78.858 8.3288 99.3631 -87.563 -76.5595 0 -0 0 9.61933 -7.89931 13.3338 25.3747 -12.0891 7.04523e-05 50.7358 -0.930198 -1.81013 -0 69.5655 -0 -3.43693 5.32849 -0.160001 -19.1754 15.4792 6.50347e-05 -54.5688 12.1475 7.74647 0 -59.9622 0 -3.55485 3.91265 -0.121499 0.0843968 1.60079 -25.1095 7.9259 -13.1 -49.503 -0 -0 56.8284 -1.84676e-06 -0.773305 -15.8565 0.211304 -3.26815e-07 -16.927 -1.15 12.4419 -32.3929 -0 -0 73.007 -5.55942e-06 16.0893 -3.75136 -1.08109 -7.45475e-06 -25.8467 
79.29 79.005 8.1698 73.7864 -87.4959 -50.563 0 -0 0 10.2027 -8.35594 12.9299 24.9977 -11.9078 0.000147095 50.7514 -0.597389 -1.68448 -1.03376e-06 70.2629 -7.27376e-07 -3.50046 5.30879 -0.162303 -19.3069 15.5398 0.000155915 -54.5292 12.3862 8.05552 6.12608e-07 -60.322 -1.05422e-06 -3.61633 3.91705 -0.123696 -0.0684102 1.32182 -24.9148 8.48683 -14.0217 -49.5126 -0 -0 56.4618 3.28497e-06 -0.814698 -15.9018 0.223195 -4.58848e-07 -17.3327 -1.05525 11.2068 -34.3231 -0 -0 73.4545 2.00179e-05 15.8163 -4.02573 -1.13928 -8.09463e-06 -25.8033 
78.844 79.138 8.0799 72.677 -87.3594 -49.3324 0 -0 0 10.0711 -7.95505 13.0529 24.7474 -11.7214 -4.46936e-06 50.7643 -0.241424 -1.58298 -0 70.9751 -0 -3.55298 5.29184 -0.164204 -19.3102 15.5797 7.07844e-05 -54.5097 12.5923 8.31242 4.40691e-07 -60.6976 -7.52688e-07 -3.67895 3.91984 -0.1259 -0.0906953 1.0472 -24.76 8.42094 -14.1839 -49.1797 -0 -0 56.207 -1.66375e-06 -0.789497 -15.9121 0.216504 -6.83103e-07 -17.8687 -1.42586 10.8769 -35.6465 -0 -0 73.5581 -2.16086e-05 15.5091 -4.39178 -1.2173 -7.3774e-07 -25.5854 
78.39 79.265 7.9919 71.8989 -87.2264 -48.4529 0 -0 0 9.93498 -7.53698 13.1871 24.4787 -11.5344 4.16596e-05 50.7619 0.0859108 -1.47291 -0 71.7045 -0 -3.6047 5.28283 -0.166402 -19.3129 15.6325 -0.000111049 -54.4991 12.7984 8.55155 0 -61.0852 0 -3.74272 3.92148 -0.128201 -0.125597 0.785902 -24.5967 8.36379 -14.3533 -48.8251 -0 -0 55.955 -4.04782e-06 -0.739191 -15.9192 0.202805 -7.23841e-07 -18.4861 -1.79118 10.5633 -36.9513 -0 -0 73.5772 2.05575e-05 15.2055 -4.75187 -1.28995 -1.28051e-05 -25.3635 
77.925 79.386 7.9045 71.4373 -87.1157 -47.9162 0 -0 0 9.79676 -7.10653 13.3387 24.1929 -11.3553 1.01042e-05 50.7465 0.40391 -1.34892 -8.35892e-07 72.4383 -1.14132e-06 -3.64976 5.2768 -0.168204 -19.3236 15.6867 -0.00013017 -54.4925 13.0258 8.76191 4.57319e-07 -61.4961 -7.68755e-07 -3.80466 3.92037 -0.130302 -0.173896 0.545097 -24.4261 8.31832 -14.5277 -48.4367 -0 -0 55.7031 6.96455e-07 -0.664102 -15.94 0.182399 -1.06639e-06 -19.0354 -2.14827 10.2812 -38.2258 -0 -0 73.5083 -2.17269e-07 14.9346 -5.12428 -1.36473 -4.763e-06 -25.0406 
77.451 79.5 7.8176 71.172 -87.0499 -47.6006 0 -0 0 9.65568 -6.66362 13.4988 23.8935 -11.1804 -9.79894e-05 50.7121 0.70369 -1.20806 -8.79159e-07 73.1765 -1.1843e-06 -3.70067 5.27916 -0.1707 -19.333 15.7563 0.000189419 -54.4939 13.2555 8.95474 -7.77497e-07 -61.9109 4.66342e-07 -3.86372 3.91884 -0.132202 -0.232596 0.324696 -24.2469 8.2837 -14.7009 -48.0211 -0 -0 55.4483 -1.79289e-06 -0.569595 -15.9618 0.156697 -1.88446e-07 -19.6374 -2.5013 10.0347 -39.4763 -0 -0 73.3569 -2.28955e-05 14.7147 -5.50489 -1.44307 1.64998e-05 -24.7524 
76.967 79.606 7.7312 71.1675 -86.9861 -47.5638 0 -0 0 9.50822 -6.21447 13.6669 23.5842 -11.015 2.10506e-05 50.6578 0.998301 -1.04842 -1.3099e-06 73.9129 -1.74103e-06 -3.75145 5.28388 -0.173203 -19.3503 15.8353 6.78911e-05 -54.5001 13.5041 9.12497 -7.86748e-07 -62.3357 4.75874e-07 -3.9173 3.91417 -0.133903 -0.298698 0.129502 -24.0614 8.2578 -14.8715 -47.5792 -0 -0 55.1937 2.35825e-06 -0.457908 -15.996 0.126195 -7.16186e-07 -20.1957 -2.8546 9.83065 -40.6995 -0 -0 73.1246 -1.18462e-06 14.5565 -5.89987 -1.52893 6.62855e-06 -24.4341 
76.474 79.704 7.6455 71.4134 -86.939 -47.7914 0 -0 0 9.35089 -5.76249 13.8368 23.2725 -10.8588 -4.18949e-05 50.5824 1.28762 -0.869331 -1.38242e-06 74.6468 -1.81316e-06 -3.80499 5.29044 -0.175904 -19.3714 15.9249 3.43722e-05 -54.511 13.7651 9.27425 0 -62.7652 0 -3.964 3.9069 -0.1353 -0.3687 -0.0404991 -23.8724 8.23751 -15.0395 -47.1135 -0 -0 54.9387 1.20386e-06 -0.334002 -16.0389 0.092301 3.27697e-07 -20.741 -3.21326 9.67064 -41.8995 -0 -0 72.8161 -2.68789e-05 14.4643 -6.30182 -1.62182 -3.04057e-06 -24.1333 
75.972 79.795 7.5611 71.8332 -86.9272 -48.2098 0 -0 0 9.18069 -5.31209 14.006 22.9589 -10.7132 -5.71683e-06 50.486 1.57368 -0.671876 -0 75.3751 -0 -3.86036 5.29659 -0.178596 -19.3946 16.0277 -1.60392e-05 -54.526 14.0396 9.40592 -8.06188e-07 -63.1893 4.95873e-07 -4.00349 3.89688 -0.136303 -0.438701 -0.185798 -23.682 8.21923 -15.2026 -46.6317 -0 -0 54.6891 1.18552e-06 -0.202505 -16.0887 0.0561004 1.83445e-07 -21.2886 -3.58296 9.55361 -43.0835 -0 -0 72.437 1.47355e-05 14.4336 -6.70082 -1.72021 1.07372e-06 -23.8549 
75.463 79.879 7.4786 72.4437 -86.9223 -48.8256 0 -0 0 8.99444 -4.86797 14.1703 22.6515 -10.5779 3.18071e-05 50.3666 1.85753 -0.459047 -0 76.0995 -0 -3.91619 5.30016 -0.181298 -19.4199 16.1421 9.28844e-05 -54.5453 14.322 9.52172 -8.16143e-07 -63.6052 5.06092e-07 -4.03541 3.88381 -0.1369 -0.505494 -0.307698 -23.4962 8.19982 -15.3622 -46.1389 -0 -0 54.4473 3.20549e-07 -0.0674999 -16.1466 0.0188005 -5.246e-09 -21.8159 -3.96777 9.47649 -44.2539 -0 -0 71.9917 -1.26338e-05 14.4586 -7.08138 -1.82063 -7.7865e-06 -23.6266 
74.948 79.955 7.3986 73.2103 -86.893 -49.5984 0 -0 0 8.79084 -4.43427 14.3265 22.351 -10.4532 5.6059e-05 50.2279 2.13861 -0.2351 -1.46732e-06 76.8214 -1.16345e-06 -3.96915 5.29925 -0.183802 -19.4465 16.2672 -9.45201e-05 -54.5698 14.6152 9.62395 0 -64.0082 0 -4.0606 3.86759 -0.137204 -0.566703 -0.408499 -23.3194 8.17479 -15.5162 -45.6419 -0 -0 54.2204 1.14972e-07 0.0673004 -16.2066 -0.0188005 -1.30954e-07 -22.3679 -4.37275 9.43463 -45.4167 -0 -0 71.489 -4.55121e-05 14.5274 -7.43303 -1.91991 4.16059e-06 -23.4132 
74.427 80.024 7.3215 74.0566 -86.8882 -50.4573 0 -0 0 8.57148 -4.01534 14.4739 22.0609 -10.3378 -3.15429e-05 50.0698 2.41582 -0.00620549 -1.09102e-06 77.5448 -8.76318e-07 -4.01408 5.29092 -0.185506 -19.4754 16.3984 0.000157597 -54.5973 14.9149 9.71211 0 -64.3895 0 -4.07948 3.84752 -0.137104 -0.621785 -0.490804 -23.1556 8.14376 -15.6672 -45.1451 -0 -0 54.0097 -5.00962e-07 0.199403 -16.2751 -0.0559007 -6.23917e-08 -22.8917 -4.79934 9.42225 -46.5776 -0 -0 70.9298 -3.59791e-05 14.6272 -7.74329 -2.01385 -1.24556e-05 -23.2064 
